<?xml version="1.0" encoding="utf-8"?>
<!-- Generator: Adobe Illustrator 24.0.3, SVG Export Plug-In . SVG Version: 6.00 Build 0)  -->
<svg version="1.1" id="Capa_1" xmlns="http://www.w3.org/2000/svg" xmlns:xlink="http://www.w3.org/1999/xlink" x="0px" y="0px"
	 viewBox="0 0 514 218.5" style="enable-background:new 0 0 514 218.5;" xml:space="preserve">
<style type="text/css">
	.st0{fill:#374A63;}
	.st1{fill:#47607F;}
	.st2{fill:#DE1F26;}
	.st3{fill:#4C9B45;}
	.st4{fill:#03A5D4;}
	.st5{fill:#EA6524;}
	.st6{fill:#4C7838;}
	.st7{fill:#094C81;}
	.st8{fill:#DA1179;}
</style>
<path class="st0" d="M80.6,33.6c0-9.4,5.8-15.8,14.4-15.8c3.5,0,6.2,0.8,8.5,2.2l-0.9,5.8c-2-1.5-4.4-2.6-7.2-2.6
	c-5.1,0-8.4,3.9-8.4,10.3c0,6.5,3.5,10.3,8.6,10.3c2.7,0,5.2-1,7.5-2.4l0.9,5.4c-2.4,1.5-5.5,2.5-8.8,2.5
	C86.1,49.3,80.6,43.1,80.6,33.6z"/>
<path class="st0" d="M105.8,42.7V27.4h5.7v13.8c0,1.8,0.8,3,2.6,3c1.6,0,3.1-1,4.5-2.4V27.4h5.7v21.4h-4.9l-0.5-3
	c-2,1.9-4.2,3.4-7,3.4C107.9,49.2,105.8,46.8,105.8,42.7z"/>
<path class="st0" d="M125.8,43.3c0-5.1,4.1-7.4,12.7-8.2v-0.6c0-2.2-1.3-3-3.6-3c-2.4,0-4.8,0.7-7.1,1.7l-0.7-4.4
	c2.5-1,5.1-1.7,8.6-1.7c5.6,0,8.4,2,8.4,7.2v14.6h-5l-0.4-2.7c-1.8,1.8-3.9,3.2-7,3.2C128.2,49.2,125.8,47.1,125.8,43.3z
	 M138.4,42.9v-4.7c-5.7,0.7-7.1,2.4-7.1,4.4c0,1.5,1,2.4,2.5,2.4C135.5,45,137,44.2,138.4,42.9z M135.6,18.4h6.9v0.4l-6,6h-3.8
	L135.6,18.4z"/>
<path class="st0" d="M146.8,17.7h5.7v31.1h-5.7V17.7z"/>
<path class="st0" d="M163.7,17.7h5.7v12.4c1.8-1.6,4-3.1,6.7-3.1c4,0,6.2,2.4,6.2,6.5v15.3h-5.7V35c0-1.8-0.8-3-2.6-3
	c-1.6,0-3.1,1-4.6,2.4v14.3h-5.7L163.7,17.7L163.7,17.7z"/>
<path class="st0" d="M183.6,43.3c0-5.1,4.1-7.4,12.7-8.2v-0.6c0-2.2-1.3-3-3.6-3c-2.4,0-4.8,0.7-7.1,1.7l-0.7-4.4
	c2.5-1,5.1-1.7,8.6-1.7c5.6,0,8.4,2,8.4,7.2v14.6h-5l-0.4-2.7c-1.8,1.8-3.9,3.2-7,3.2C186,49.2,183.6,47.1,183.6,43.3z M196.3,42.9
	v-4.7c-5.7,0.7-7.1,2.4-7.1,4.4c0,1.5,1,2.4,2.5,2.4C193.3,45,194.9,44.2,196.3,42.9z"/>
<path class="st0" d="M211.8,47.1l0.7-4.8c2.4,1.5,5.4,2.5,7.9,2.5c2.1,0,3.2-0.7,3.2-1.9c0-1.3-0.8-1.8-4-2.6
	c-5.3-1.4-7.5-2.8-7.5-6.8c0-3.8,3-6.5,8.1-6.5c2.8,0,5.5,0.6,7.7,1.6l-0.8,4.7c-2.2-1.2-4.8-2-6.9-2c-1.8,0-2.6,0.6-2.6,1.7
	c0,1,0.7,1.6,3.8,2.4c5.6,1.5,7.7,3,7.7,7c0,4.4-3.1,6.8-8.7,6.8C217.1,49.2,213.9,48.2,211.8,47.1z"/>
<path class="st0" d="M230.3,20.8c0-1.8,1.4-3.1,3.3-3.1c1.8,0,3.3,1.3,3.3,3.1c0,1.9-1.5,3.2-3.3,3.2
	C231.7,24,230.3,22.7,230.3,20.8z M230.7,27.4h5.7v21.4h-5.7V27.4z"/>
<path class="st0" d="M238.2,38.7c0-8,4.4-11.5,9.3-11.5c2,0,3.5,0.4,4.8,0.8V17.7h5.7v31.1h-5l-0.5-2.9c-1.5,1.7-3.6,3.3-6.4,3.3
	C241.7,49.2,238.2,45.9,238.2,38.7z M252.2,41.5v-8.9c-1.2-0.5-2.1-0.8-3.8-0.8c-2.6,0-4.6,2.1-4.6,6.6c0,4,1.6,5.8,3.9,5.8
	C249.5,44.2,250.9,43.1,252.2,41.5z"/>
<path class="st0" d="M259.4,38.1c0-6.9,4.3-11.2,10.1-11.2c5.9,0,10.2,4.2,10.2,11.1s-4.3,11.1-10.2,11.1
	C263.7,49.2,259.4,45,259.4,38.1z M274.2,38.1c0-3.8-1.7-6.5-4.6-6.5c-3,0-4.6,2.6-4.6,6.5c0,3.8,1.6,6.5,4.6,6.5
	S274.2,41.9,274.2,38.1z"/>
<path class="st0" d="M288.5,38.1c0-7,4.2-11.2,9.8-11.2c6.5,0,9.3,4.8,9.3,10.9c0,0.5,0,1.2,0,1.7h-13.4c0.3,3.6,2.4,5.3,5.6,5.3
	c2.6,0,4.9-1,7.2-2.5l0.6,4.3c-2.3,1.6-5.1,2.6-8.5,2.6C293,49.2,288.5,45.8,288.5,38.1z M302.2,35.9c-0.3-3.3-1.6-5.1-4-5.1
	c-2,0-3.6,1.7-4,5.1H302.2z"/>
<path class="st0" d="M309.5,17.7h5.7v31.1h-5.7V17.7z"/>
<path class="st0" d="M81.2,68.4h4.9l0.5,2.9c1.5-1.7,3.6-3.3,6.4-3.3c4.4,0,8,3.3,8,10.6c0,8-4.4,11.5-9.3,11.5
	c-2,0-3.5-0.4-4.8-0.8v8.2h-5.7V68.4z M95.3,78.9c0-4-1.7-5.8-3.9-5.8c-1.8,0-3.2,1.1-4.5,2.7v8.9c1.2,0.5,2.1,0.8,3.8,0.8
	C93.3,85.5,95.3,83.4,95.3,78.9z"/>
<path class="st0" d="M102.5,68.4h4.9l0.7,4.3c1.4-2.5,3.4-4.6,6.7-4.7l0.9,5.7c-3.3,0.2-5.9,1.8-7.5,4v12.2h-5.7V68.4z"/>
<path class="st0" d="M116.1,61.8c0-1.8,1.4-3.1,3.3-3.1c1.8,0,3.3,1.3,3.3,3.1c0,1.9-1.5,3.2-3.3,3.2
	C117.5,65,116.1,63.7,116.1,61.8z M116.5,68.4h5.7v21.4h-5.7V68.4z"/>
<path class="st0" d="M125,68.4h4.9l0.5,3c2-1.9,4.2-3.4,7-3.4c4,0,6.1,2.4,6.1,6.5v15.3h-5.7V76c0-1.8-0.8-3-2.6-3
	c-1.6,0-3.1,1-4.5,2.4v14.3H125V68.4z"/>
<path class="st0" d="M144.9,79.2c0-7.5,4.7-11.2,10.4-11.2c2.8,0,4.9,0.7,6.6,1.7l-0.8,5.1c-1.8-1.3-3.4-1.9-5.4-1.9
	c-2.9,0-5.1,2.1-5.1,6.2c0,4.2,2.3,6.2,5.4,6.2c1.8,0,3.4-0.5,5.4-1.9l0.7,4.8c-2.2,1.4-4.3,2-7,2C149.1,90.2,144.9,86.2,144.9,79.2
	z"/>
<path class="st0" d="M163.3,61.8c0-1.8,1.4-3.1,3.3-3.1c1.8,0,3.3,1.3,3.3,3.1c0,1.9-1.5,3.2-3.3,3.2S163.3,63.7,163.3,61.8z
	 M163.8,68.4h5.7v21.4h-5.7V68.4z"/>
<path class="st0" d="M172.2,68.4h4.9l0.5,2.9c1.5-1.7,3.6-3.3,6.4-3.3c4.4,0,8,3.3,8,10.6c0,8-4.4,11.5-9.3,11.5
	c-2,0-3.5-0.4-4.8-0.8v8.2h-5.7L172.2,68.4L172.2,68.4z M186.3,78.9c0-4-1.7-5.8-3.9-5.8c-1.8,0-3.2,1.1-4.5,2.7v8.9
	c1.2,0.5,2.1,0.8,3.8,0.8C184.4,85.5,186.3,83.4,186.3,78.9z"/>
<path class="st0" d="M192.4,84.3c0-5.1,4.1-7.4,12.7-8.2v-0.6c0-2.2-1.3-3-3.6-3c-2.4,0-4.8,0.7-7.1,1.7l-0.7-4.4
	c2.5-1,5.1-1.7,8.6-1.7c5.6,0,8.4,2,8.4,7.2v14.6h-5l-0.4-2.7c-1.8,1.8-3.9,3.2-7,3.2C194.8,90.2,192.4,88.1,192.4,84.3z
	 M205.1,83.9v-4.7c-5.7,0.7-7.1,2.4-7.1,4.4c0,1.5,1,2.4,2.5,2.4C202.2,86,203.7,85.2,205.1,83.9z"/>
<path class="st0" d="M213.5,58.7h5.7v31.1h-5.7V58.7z"/>
<path class="st0" d="M230.4,68.4h4.9l0.5,2.9c1.5-1.7,3.6-3.3,6.4-3.3c4.4,0,8,3.3,8,10.6c0,8-4.4,11.5-9.3,11.5
	c-2,0-3.5-0.4-4.8-0.8v8.2h-5.7L230.4,68.4L230.4,68.4z M244.4,78.9c0-4-1.7-5.8-3.9-5.8c-1.8,0-3.2,1.1-4.5,2.7v8.9
	c1.2,0.5,2.1,0.8,3.8,0.8C242.5,85.5,244.4,83.4,244.4,78.9z"/>
<path class="st0" d="M251.7,68.4h4.9l0.7,4.3c1.4-2.5,3.4-4.6,6.7-4.7l0.9,5.7c-3.3,0.2-5.9,1.8-7.5,4v12.2h-5.7L251.7,68.4
	L251.7,68.4z"/>
<path class="st0" d="M264.4,79.1c0-6.9,4.3-11.2,10.1-11.2c5.9,0,10.2,4.2,10.2,11.1s-4.3,11.1-10.2,11.1
	C268.6,90.2,264.4,86,264.4,79.1z M279.1,79.1c0-3.8-1.7-6.5-4.6-6.5c-3,0-4.6,2.6-4.6,6.5c0,3.8,1.6,6.5,4.6,6.5
	S279.1,82.9,279.1,79.1z"/>
<path class="st0" d="M286.2,88.6V58.7h5.7v12.1c1.4-1.4,3.3-2.8,6-2.8c4.5,0,8,3.3,8,10.6c0,7.8-4.3,11.5-10.7,11.5
	C291.7,90,288.8,89.5,286.2,88.6z M300.1,78.9c0-4-1.6-5.8-3.8-5.8c-1.7,0-3.1,1.1-4.4,2.6V85c1,0.4,1.8,0.5,3.1,0.5
	C298,85.4,300.1,83.5,300.1,78.9z"/>
<path class="st0" d="M307.6,58.7h5.7v31.1h-5.7V58.7z"/>
<path class="st0" d="M315,79.1c0-7,4.2-11.2,9.8-11.2c6.5,0,9.3,4.8,9.3,10.9c0,0.5,0,1.2,0,1.7h-13.4c0.3,3.6,2.4,5.3,5.6,5.3
	c2.6,0,4.9-1,7.2-2.5l0.6,4.3c-2.3,1.6-5.1,2.6-8.5,2.6C319.5,90.2,315,86.8,315,79.1z M328.6,76.9c-0.3-3.3-1.6-5.1-4-5.1
	c-2,0-3.6,1.7-4,5.1H328.6z"/>
<path class="st0" d="M335.7,68.4h4.9l0.5,3c2-1.9,4.1-3.4,7-3.4c3,0,4.6,1.4,5.4,3.4c1.9-1.9,4.2-3.4,7-3.4c4,0,6,2.4,6,6.5v15.3
	h-5.7V76c0-1.8-0.6-3-2.4-3c-1.5,0-3,1-4.4,2.4v14.3h-5.7V76c0-1.8-0.7-3-2.5-3c-1.5,0-3,1-4.4,2.4v14.3h-5.7L335.7,68.4L335.7,68.4
	z"/>
<path class="st0" d="M367.9,84.3c0-5.1,4.1-7.4,12.7-8.2v-0.6c0-2.2-1.3-3-3.6-3c-2.4,0-4.8,0.7-7.1,1.7l-0.7-4.4
	c2.5-1,5.1-1.7,8.6-1.7c5.6,0,8.4,2,8.4,7.2v14.6h-5l-0.4-2.7c-1.8,1.8-3.9,3.2-7,3.2C370.3,90.2,367.9,88.1,367.9,84.3z
	 M380.5,83.9v-4.7c-5.7,0.7-7.1,2.4-7.1,4.4c0,1.5,1,2.4,2.5,2.4C377.6,86,379.2,85.2,380.5,83.9z"/>
<path class="st0" d="M396,79.7c0-8,4.4-11.5,9.3-11.5c2,0,3.5,0.4,4.8,0.8V58.7h5.7v31.1h-4.9l-0.5-2.9c-1.5,1.7-3.6,3.3-6.4,3.3
	C399.6,90.2,396,86.9,396,79.7z M410.1,82.5v-8.9c-1.2-0.5-2.1-0.8-3.8-0.8c-2.6,0-4.6,2.1-4.6,6.6c0,4,1.6,5.8,3.9,5.8
	C407.4,85.2,408.8,84.1,410.1,82.5z"/>
<path class="st0" d="M417.3,79.1c0-7,4.2-11.2,9.8-11.2c6.5,0,9.3,4.8,9.3,10.9c0,0.5,0,1.2,0,1.7H423c0.3,3.6,2.4,5.3,5.6,5.3
	c2.6,0,4.9-1,7.2-2.5l0.6,4.3c-2.3,1.6-5.1,2.6-8.5,2.6C421.8,90.2,417.3,86.8,417.3,79.1z M431,76.9c-0.3-3.3-1.6-5.1-4-5.1
	c-2,0-3.6,1.7-4,5.1H431z"/>
<path class="st0" d="M81.4,99.7h5.7v31.1h-5.7V99.7z"/>
<path class="st0" d="M88.8,125.3c0-5.1,4.1-7.4,12.7-8.2v-0.6c0-2.2-1.3-3-3.6-3c-2.4,0-4.8,0.7-7.1,1.7l-0.7-4.4
	c2.5-1,5.1-1.7,8.6-1.7c5.6,0,8.4,2,8.4,7.2v14.6h-5l-0.4-2.7c-1.8,1.8-3.9,3.2-7,3.2C91.2,131.2,88.8,129.1,88.8,125.3z
	 M101.5,124.9v-4.7c-5.7,0.7-7.1,2.4-7.1,4.4c0,1.5,1,2.4,2.5,2.4C98.5,127,100.1,126.2,101.5,124.9z"/>
<path class="st0" d="M108.6,129.1l0.7-4.8c2.4,1.5,5.4,2.5,7.9,2.5c2.1,0,3.2-0.7,3.2-1.9c0-1.3-0.8-1.8-4-2.6
	c-5.3-1.4-7.5-2.8-7.5-6.8c0-3.8,3-6.5,8.1-6.5c2.8,0,5.5,0.6,7.7,1.6l-0.8,4.7c-2.2-1.2-4.8-2-6.9-2c-1.8,0-2.6,0.6-2.6,1.7
	c0,1,0.7,1.6,3.8,2.4c5.6,1.5,7.7,3,7.7,7c0,4.4-3.1,6.8-8.7,6.8C113.9,131.2,110.7,130.2,108.6,129.1z"/>
<path class="st0" d="M135.9,138.6l-0.8-4.6c0.7,0.2,1.4,0.3,2.5,0.3c1.5,0,2.8-0.7,3.4-2.2l0.4-1.2l-7.9-21.4h6.2l4.6,14.4l4.5-14.4
	h5.6l-8,22.3c-1.9,5.3-4.4,7-8.7,7C136.9,138.8,136.4,138.7,135.9,138.6z"/>
<path class="st0" d="M163.8,99.7h5.7v31.1h-5.7V99.7z"/>
<path class="st0" d="M171.2,120.1c0-6.9,4.3-11.2,10.1-11.2c5.9,0,10.2,4.2,10.2,11.1s-4.3,11.1-10.2,11.1
	C175.5,131.2,171.2,127,171.2,120.1z M186,120.1c0-3.8-1.7-6.5-4.6-6.5c-3,0-4.6,2.6-4.6,6.5c0,3.8,1.6,6.5,4.6,6.5
	C184.3,126.6,186,123.9,186,120.1z"/>
<path class="st0" d="M192,129.1l0.7-4.8c2.4,1.5,5.4,2.5,7.9,2.5c2.1,0,3.2-0.7,3.2-1.9c0-1.3-0.8-1.8-4-2.6
	c-5.3-1.4-7.5-2.8-7.5-6.8c0-3.8,3-6.5,8.1-6.5c2.8,0,5.5,0.6,7.7,1.6l-0.8,4.7c-2.2-1.2-4.8-2-6.9-2c-1.8,0-2.6,0.6-2.6,1.7
	c0,1,0.7,1.6,3.8,2.4c5.6,1.5,7.7,3,7.7,7c0,4.4-3.1,6.8-8.7,6.8C197.3,131.2,194.1,130.2,192,129.1z"/>
<path class="st0" d="M219,109.4h4.9l0.5,3c2-1.9,4.1-3.4,7-3.4c3,0,4.6,1.4,5.4,3.4c1.9-1.9,4.2-3.4,7-3.4c4,0,6,2.4,6,6.5v15.3
	h-5.7V117c0-1.8-0.6-3-2.4-3c-1.5,0-3,1-4.4,2.4v14.3h-5.7V117c0-1.8-0.7-3-2.5-3c-1.5,0-3,1-4.4,2.4v14.3H219V109.4z"/>
<path class="st0" d="M252.1,102.8c0-1.8,1.4-3.1,3.3-3.1c1.8,0,3.3,1.3,3.3,3.1c0,1.9-1.5,3.2-3.3,3.2S252.1,104.7,252.1,102.8z
	 M252.6,109.4h5.7v21.4h-5.7L252.6,109.4L252.6,109.4z"/>
<path class="st0" d="M261.4,137.2l0.8-4.6c2,1.1,4.4,1.8,6.9,1.8c3.2,0,4.8-1.5,4.8-4.4v-2.2c-1.4,1.4-3.3,2.8-6,2.8
	c-4.4,0-8-3.3-8-10.3c0-7.6,4.3-11.2,10.7-11.2c3.4,0,6.3,0.6,8.9,1.5v19.2c0,5.8-3.3,9-10.1,9C266.2,138.8,263.6,138.1,261.4,137.2
	z M273.9,123.2v-8.9c-1-0.4-1.7-0.5-3.1-0.5c-3.1,0-5.1,1.9-5.1,6.4c0,3.8,1.6,5.6,3.8,5.6C271.2,125.8,272.6,124.7,273.9,123.2z"/>
<path class="st0" d="M282.2,109.4h4.9l0.7,4.3c1.4-2.5,3.4-4.6,6.7-4.7l0.9,5.7c-3.3,0.2-5.9,1.8-7.5,4v12.2h-5.7V109.4z"/>
<path class="st0" d="M294.8,125.3c0-5.1,4.1-7.4,12.7-8.2v-0.6c0-2.2-1.3-3-3.6-3c-2.4,0-4.8,0.7-7.1,1.7l-0.7-4.4
	c2.5-1,5.1-1.7,8.6-1.7c5.6,0,8.4,2,8.4,7.2v14.6h-5l-0.4-2.7c-1.8,1.8-3.9,3.2-7,3.2C297.2,131.2,294.8,129.1,294.8,125.3z
	 M307.5,124.9v-4.7c-5.7,0.7-7.1,2.4-7.1,4.4c0,1.5,1,2.4,2.5,2.4C304.6,127,306.1,126.2,307.5,124.9z"/>
<path class="st0" d="M315.7,109.4h4.9l0.5,3c2-1.9,4.2-3.4,7-3.4c4,0,6.1,2.4,6.1,6.5v15.3h-5.7V117c0-1.8-0.8-3-2.6-3
	c-1.6,0-3.1,1-4.5,2.4v14.3h-5.7L315.7,109.4L315.7,109.4z"/>
<path class="st0" d="M337.8,124.5v-10.4h-3v-4.6h3v-7h5.6v7h4.6v4.6h-4.6v9.5c0,1.7,0.8,2.6,2.8,2.6c0.7,0,1.4-0.1,2-0.2v4.8
	c-1,0.2-1.7,0.3-3.1,0.3C340.7,131.1,337.8,129.5,337.8,124.5z"/>
<path class="st0" d="M348.6,120.1c0-7,4.2-11.2,9.8-11.2c6.5,0,9.3,4.8,9.3,10.9c0,0.5,0,1.2,0,1.7h-13.4c0.3,3.6,2.4,5.3,5.6,5.3
	c2.6,0,4.9-1,7.2-2.5l0.6,4.3c-2.3,1.6-5.1,2.6-8.5,2.6C353.1,131.2,348.6,127.8,348.6,120.1z M362.3,117.9c-0.3-3.3-1.6-5.1-4-5.1
	c-2,0-3.6,1.7-4,5.1H362.3z"/>
<path class="st0" d="M368.3,129.1l0.7-4.8c2.4,1.5,5.4,2.5,7.9,2.5c2.1,0,3.2-0.7,3.2-1.9c0-1.3-0.8-1.8-4-2.6
	c-5.3-1.4-7.5-2.8-7.5-6.8c0-3.8,3-6.5,8.1-6.5c2.8,0,5.5,0.6,7.7,1.6l-0.8,4.7c-2.2-1.2-4.8-2-6.9-2c-1.8,0-2.6,0.6-2.6,1.7
	c0,1,0.7,1.6,3.8,2.4c5.6,1.5,7.7,3,7.7,7c0,4.4-3.1,6.8-8.7,6.8C373.6,131.2,370.4,130.2,368.3,129.1z"/>
<path class="st0" d="M394.3,120.1c0-7,4.2-11.2,9.8-11.2c6.5,0,9.3,4.8,9.3,10.9c0,0.5,0,1.2,0,1.7H400c0.3,3.6,2.4,5.3,5.6,5.3
	c2.6,0,4.9-1,7.2-2.5l0.6,4.3c-2.3,1.6-5.1,2.6-8.5,2.6C398.8,131.2,394.3,127.8,394.3,120.1z M408,117.9c-0.3-3.3-1.6-5.1-4-5.1
	c-2,0-3.6,1.7-4,5.1H408z"/>
<path class="st0" d="M415.1,109.4h4.9l0.5,3c2-1.9,4.2-3.4,7-3.4c4,0,6.1,2.4,6.1,6.5v15.3h-5.7V117c0-1.8-0.8-3-2.6-3
	c-1.6,0-3.1,1-4.5,2.4v14.3h-5.7L415.1,109.4L415.1,109.4z"/>
<g>
	<g>
		<path class="st1" d="M49.6,70.9l-1,0.3c-16,5.4-22.9,13.7-22.9,25.8c0,9.5,6.4,14.9,15.4,14.9c9.4,0,18-4.9,27.2-12.1l3.3,22.4
			c-9,7.5-20.1,12.7-35.5,12.7c-22.2,0-36.2-13-36.2-36.2c0-19.1,11.6-33.5,30.3-40.2l1.4-14.2h15.6L49.6,70.9z M52.7,29.6H26.5v-29
			h26.2V29.6z"/>
	</g>
</g>
<g>
	<g>
		<path class="st1" d="M464,148.3l1-0.3c14.7-6.1,22.9-13.7,22.9-25.8c0-9.5-6.4-14.9-15.4-14.9c-9.4,0-18,4.9-27.2,12.1L442,96.9
			c9-7.5,20.1-12.7,35.5-12.7c22.2,0,36.2,13,36.2,36.2c0,19.1-11.6,33.5-30.3,40.2L482,175h-15.6L464,148.3z M460.9,189.5H487v29
			h-26.2v-29H460.9z"/>
	</g>
</g>
<g>
	<path class="st2" d="M96.1,163.6l-3.7,52.1H79l5.6-73.1h19.3l17.3,53.8l17.3-53.8h18.9l5.6,73.1h-15.2l-3.7-52.1l-17.2,52.3h-13.6
		L96.1,163.6z"/>
	<path class="st3" d="M167.1,190.1c0-16.6,10.4-26.8,24.3-26.8c14.1,0,24.4,10.1,24.4,26.7c0,16.6-10.4,26.7-24.5,26.7
		C177.4,216.8,167.1,206.8,167.1,190.1z M202.6,190.1c0-9.1-4-15.7-11.2-15.7c-7.2,0-11.1,6.3-11.1,15.6c0,9.1,3.9,15.6,11.1,15.6
		C198.6,205.6,202.6,199.3,202.6,190.1z"/>
	<path class="st4" d="M220.8,164.4h11.7l1.2,7.1c4.8-4.5,10.1-8.2,16.8-8.2c9.6,0,14.7,5.9,14.7,15.6v36.8h-13.7v-33.2
		c0-4.2-1.8-7.1-6.3-7.1c-3.8,0-7.4,2.3-10.9,5.9v34.4h-13.7V164.4z"/>
	<path class="st5" d="M275.1,200.6v-25.1H268v-11.2h7.1v-16.8h13.6v16.8h11.1v11.2h-11.1v22.9c0,4.1,1.9,6.3,6.6,6.3
		c1.6,0,3.5-0.2,4.7-0.5v11.5c-2.5,0.6-4,0.8-7.4,0.8C282.2,216.6,275.1,212.7,275.1,200.6z"/>
	<path class="st6" d="M302.4,190.1c0-16.7,10.1-26.8,23.7-26.8c15.6,0,22.4,11.6,22.4,26.3c0,1.3,0,2.8-0.1,4.1h-32.2
		c0.7,8.6,5.8,12.7,13.4,12.7c6.3,0,11.8-2.3,17.4-6.1l1.5,10.3c-5.6,3.8-12.3,6.2-20.5,6.2C313.3,216.8,302.4,208.6,302.4,190.1z
		 M335.3,184.8c-0.7-7.9-3.8-12.2-9.5-12.2c-4.9,0-8.8,4-9.6,12.2H335.3z"/>
	<path class="st6" d="M353.6,164.4h11.7l1.6,10.3c3.3-6,8.2-11,16.1-11.3l2.2,13.7c-7.9,0.5-14.2,4.4-18,9.5v29.2h-13.7V164.4z"/>
	<path class="st7" d="M387.1,164.4h13.7v51.4h-13.7V164.4z M399,142.6h16.5v0.9L401,157.8h-9L399,142.6z"/>
	<path class="st8" d="M407.4,202.6c0-12.3,9.9-17.8,30.5-19.8v-1.3c0-5.3-3.1-7.3-8.6-7.3c-5.9,0-11.5,1.7-17,4.1l-1.6-10.7
		c6-2.5,12.3-4.1,20.6-4.1c13.6,0,20.3,4.8,20.3,17.3v35h-11.9l-1.1-6.5c-4.2,4.2-9.3,7.6-16.7,7.6
		C413.2,216.8,407.4,211.7,407.4,202.6z M437.9,201.6v-11.3c-13.8,1.7-17,5.8-17,10.6c0,3.7,2.3,5.8,6,5.8
		C430.8,206.7,434.6,204.8,437.9,201.6z"/>
</g>
</svg>
